<svg width="164" height="137" viewBox="0 0 164 137" fill="currentColor" xmlns="http://www.w3.org/2000/svg">
<g filter="url(#filter0_d_4_6)">
<path d="M78 0C78 0 194 168 149 120C104 72 54 73 14 120C-26 167 78 0 78 0Z" fill="currentColor"/>
<path d="M77.2666 2.12767C77.5797 1.62324 77.8328 1.21579 78.0216 0.912025C78.2338 1.21996 78.5216 1.63787 78.8799 2.15843C79.7183 3.37695 80.9423 5.15794 82.4841 7.40766C85.5677 11.9071 89.9227 18.2814 95.0081 25.7806C105.179 40.7795 118.271 60.2763 129.956 78.2723C141.646 96.2772 151.912 112.754 156.444 121.725C157.579 123.972 158.339 125.718 158.678 126.889C158.851 127.487 158.893 127.869 158.863 128.074C158.86 128.095 158.857 128.112 158.854 128.125C158.717 128.118 158.419 128.021 157.906 127.698C157.397 127.377 156.748 126.88 155.946 126.185C154.343 124.795 152.173 122.654 149.365 119.658C126.804 95.5932 102.93 83.749 79.6223 83.875C56.3106 84.001 33.6833 96.1007 13.6192 119.676C11.123 122.609 9.19921 124.694 7.78326 126.035C7.07413 126.706 6.50466 127.178 6.06322 127.475C5.84257 127.624 5.66521 127.721 5.52728 127.778C5.4512 127.81 5.39612 127.825 5.35894 127.833C5.35512 127.814 5.35132 127.791 5.34836 127.761C5.32477 127.525 5.37398 127.116 5.53593 126.507C5.8546 125.309 6.55057 123.543 7.57994 121.286C11.6925 112.266 20.9289 95.8195 31.4315 77.8776C41.9292 59.9441 53.6773 40.5409 62.8016 25.6202C67.3636 18.1601 71.2694 11.8209 74.0347 7.34686C75.4173 5.10984 76.5148 3.3391 77.2666 2.12767Z" stroke="currentColor"/>
</g>
<defs>
<filter id="filter0_d_4_6" x="0.842873" y="0" width="162.529" height="136.625" filterUnits="userSpaceOnUse" color-interpolation-filters="sRGB">
<feFlood flood-opacity="0" result="BackgroundImageFix"/>
<feColorMatrix in="SourceAlpha" type="matrix" values="0 0 0 0 0 0 0 0 0 0 0 0 0 0 0 0 0 0 127 0" result="hardAlpha"/>
<feOffset dy="4"/>
<feGaussianBlur stdDeviation="2"/>
<feComposite in2="hardAlpha" operator="out"/>
<feColorMatrix type="matrix" values="0 0 0 0 0 0 0 0 0 0 0 0 0 0 0 0 0 0 0.25 0"/>
<feBlend mode="normal" in2="BackgroundImageFix" result="effect1_dropShadow_4_6"/>
<feBlend mode="normal" in="SourceGraphic" in2="effect1_dropShadow_4_6" result="shape"/>
</filter>
</defs>
</svg>
